<?xml version="1.0" encoding="UTF-8"?>
<svg version="1.1" xmlns="http://www.w3.org/2000/svg" width="256" height="256">
<path d="M0 0 C3.7070667 2.11832383 5.36921782 4.12951696 7 8 C7.75247581 12.31950057 7.96189355 16.33291456 5.7265625 20.20703125 C4.23674799 21.99117497 2.83088863 23.56754309 1 25 C0.34 25 -0.32 25 -1 25 C-0.67 26.65 -0.34 28.3 0 30 C0.78761719 29.154375 1.57523438 28.30875 2.38671875 27.4375 C9.65036398 19.80673099 16.62087888 13.95500738 26 9 C26.89074219 8.52046875 27.78148437 8.0409375 28.69921875 7.546875 C47.96460544 -2.01382512 72.82785524 -3.6328692 93.39453125 2.60546875 C103.8897838 6.66484596 113.50705236 11.52214571 122 19 C123.09441406 19.91652344 123.09441406 19.91652344 124.2109375 20.8515625 C127.5729089 23.70377651 130.43656864 26.39075155 133 30 C133.41870553 27.66928121 133.41870553 27.66928121 133 25 C130.63624434 22.89229266 130.63624434 22.89229266 128 21 C125.72993654 17.97324872 125.58177568 14.83928658 125.6796875 11.09765625 C126.24966633 7.36499001 127.79473813 5.06286371 130 2 C134.57018977 -0.95776351 139.75790376 -0.76510364 145 0 C148.17454605 1.65494746 150.37675639 3.75351278 152 7 C152.60499867 11.61790121 153.04912925 16.11479544 150.73046875 20.28125 C149.23936587 22.05170792 147.84389589 23.60035882 146 25 C145.34 25 144.68 25 144 25 C144.05539973 43.19145861 144.05539973 43.19145861 148.74609375 60.5859375 C156.27351737 81.08116567 153.7718237 106.64884428 144.9375 126.25 C136.82684058 141.41641431 124.29523 149.80029304 109 157 C109.47050781 157.43570313 109.94101563 157.87140625 110.42578125 158.3203125 C114.19394867 161.92464656 117.08483464 165.04310142 119 170 C119 170.99 119 171.98 119 173 C127.52823362 170.72758665 134.68141967 167.93800123 142 163 C143.03125 162.443125 144.0625 161.88625 145.125 161.3125 C147.8607253 157.93843879 147.1780325 155.03475499 147.00390625 150.81640625 C146.99698028 145.82278014 148.20906343 141.94234425 151.6171875 138.24609375 C157.54564192 132.96646159 161.98186752 131.48109286 169.953125 131.6171875 C175.79433114 132.35108263 179.32129615 135.32129615 183.375 139.375 C186.65972239 144.68109001 187.511696 149.64393543 186.58984375 155.734375 C184.68901976 163.03555325 180.50399372 166.63413441 174.26171875 170.44140625 C171.19799361 172.55267798 169.09722416 175.14310737 166.734375 177.98828125 C156.09775073 190.32580715 140.7624092 196.95813156 125 200 C122.66682209 200.0269307 120.33313282 200.03058935 118 200 C117.95101562 200.90621094 117.90203125 201.81242188 117.8515625 202.74609375 C116.45792365 225.45279566 116.45792365 225.45279566 107.125 233.8125 C102.49648594 237.05245984 98.78818191 239 93 239 C92.90203125 239.59167969 92.8040625 240.18335938 92.703125 240.79296875 C91.75062792 245.82642313 90.84645754 249.36723454 87 253 C80.29267152 256.95855164 74.09501279 256.4787365 66.5 256.4375 C65.19417969 256.45748047 63.88835937 256.47746094 62.54296875 256.49804688 C60.64998047 256.49708008 60.64998047 256.49708008 58.71875 256.49609375 C57.57341797 256.49794678 56.42808594 256.4997998 55.24804688 256.50170898 C50.13668561 255.71218347 47.04849553 253.19018412 43.6875 249.375 C41.03691062 245.64454088 40.9008991 243.55864123 41 239 C39.865625 238.95875 38.73125 238.9175 37.5625 238.875 C31.41527486 238.09024785 26.55044252 234.76091593 22.390625 230.2578125 C18.00445665 224.45258968 16.71057521 218.221894 15.9296875 211.07421875 C15.84373322 210.32719193 15.75777893 209.5801651 15.66921997 208.8105011 C15.48971688 207.23673419 15.31341015 205.66259975 15.14013672 204.08813477 C14.87684097 201.70416875 14.60131603 199.32184989 14.32421875 196.93945312 C11.49782129 172.1592306 11.49782129 172.1592306 17.6875 163.69140625 C22.2260514 158.3869743 22.2260514 158.3869743 25 157 C23.44152344 156.27296875 23.44152344 156.27296875 21.8515625 155.53125 C4.12318066 147.08855519 -7.78098651 136.74687564 -15 118 C-21.54169672 98.19603533 -21.81110566 73.64543756 -13.39453125 54.296875 C-11.26981337 48.77139323 -11.48638764 43.09651074 -11.5 37.25 C-11.47164062 36.12722656 -11.44328125 35.00445312 -11.4140625 33.84765625 C-11.18689585 27.54491483 -11.18689585 27.54491483 -14.40625 22.484375 C-15.2621875 21.99453125 -16.118125 21.5046875 -17 21 C-19.66574338 16.91252682 -19.67243876 12.73167277 -19 8 C-14.72985003 -0.38779458 -8.80937097 -1.07176323 0 0 Z " fill="#030303" transform="translate(40,0)"/>
<path d="M0 0 C1.37612027 -0.0038951 2.75223936 -0.00823142 4.12835693 -0.01298523 C7.00634666 -0.02042181 9.88421369 -0.02017587 12.76220703 -0.01489258 C16.42119406 -0.00911571 20.07967195 -0.02599771 23.73857498 -0.04923725 C26.58018858 -0.06408985 29.421683 -0.06483055 32.26332855 -0.06172752 C34.25884743 -0.06247977 36.25434801 -0.07626413 38.24981689 -0.09040833 C53.14166698 -0.01547537 64.68420789 3.57694929 75.58984375 13.8125 C83.7639487 22.53428368 87.63255657 33.19514532 87.265625 45.08984375 C85.84135972 58.39377622 80.52531309 69.24921584 70.15625 77.76953125 C59.2612639 85.23602522 48.1108003 86.61386756 35.25390625 86.63671875 C33.28619514 86.64670395 33.28619514 86.64670395 31.2787323 86.65689087 C28.50927439 86.66881267 25.73994071 86.67257718 22.97045898 86.67138672 C19.45841086 86.67118425 15.94717843 86.69843341 12.43532276 86.73293114 C9.04150878 86.76080953 5.64783271 86.75935633 2.25390625 86.76171875 C1.01179886 86.77608978 -0.23030853 86.79046082 -1.51005554 86.80526733 C-13.82535839 86.7418252 -24.31091859 83.93141126 -34.078125 76.30078125 C-34.91085938 75.6871875 -35.74359375 75.07359375 -36.6015625 74.44140625 C-39.23488834 72.16528234 -40.86106696 69.99470963 -42.703125 67.05078125 C-43.55777344 65.71273437 -43.55777344 65.71273437 -44.4296875 64.34765625 C-48.16590425 57.44185278 -49.56722339 51.71705343 -49.453125 43.86328125 C-49.46472656 43.06857422 -49.47632813 42.27386719 -49.48828125 41.45507812 C-49.43605385 30.7571655 -45.24813502 20.96600296 -38.0390625 13.06640625 C-26.67707742 2.38694324 -15.11602085 -0.0105375 0 0 Z " fill="#5E7B89" transform="translate(88.078125,50.69921875)"/>
<path d="M0 0 C1.0010376 -0.00547852 2.0020752 -0.01095703 3.03344727 -0.01660156 C12.86220012 0.07698256 21.96621464 1.37991346 30.9375 5.5 C31.62013916 5.80752197 32.30277832 6.11504395 33.00610352 6.43188477 C38.78283257 9.11493799 43.9077603 12.31256487 48.875 16.3125 C49.63039063 16.89386719 50.38578125 17.47523437 51.1640625 18.07421875 C64.81345712 29.26109372 73.83829055 47.09042096 76.875 64.3125 C77.24374503 69.01029817 77.25152613 73.66523784 77.1875 78.375 C77.19072266 79.56416016 77.19394531 80.75332031 77.19726562 81.97851562 C77.13398879 92.4537075 76.21375683 102.00174988 71.3125 111.375 C70.96098877 112.05618896 70.60947754 112.73737793 70.24731445 113.43920898 C64.65964013 123.84414147 57.19621934 130.66761024 46.875 136.3125 C46.18148437 136.70050781 45.48796875 137.08851563 44.7734375 137.48828125 C32.38283434 143.68358283 18.33742267 144.96232749 4.71826172 144.77905273 C2.37525514 144.75000316 0.03451826 144.75852955 -2.30859375 144.77148438 C-23.50518353 144.74323905 -43.93889605 141.00938473 -60.125 126.3125 C-73.54778029 112.22228865 -76.77631771 94.31852233 -76.59301758 75.53515625 C-76.05702722 56.98792048 -69.75747983 39.17168759 -57.125 25.3125 C-56.39796875 24.49394531 -55.6709375 23.67539062 -54.921875 22.83203125 C-39.97769707 6.89960929 -21.38709153 0.08527941 0 0 Z M-59.58984375 59.1328125 C-67.4467704 70.28844881 -68.40120631 82.02593009 -67.125 95.3125 C-64.37172274 106.68365854 -57.41397574 115.45924384 -47.75 121.80859375 C-40.20181058 126.13307727 -32.86392143 128.40662233 -24.1640625 128.48950195 C-22.98513428 128.50233719 -21.80620605 128.51517242 -20.59155273 128.52839661 C-19.32384033 128.53578354 -18.05612793 128.54317047 -16.75 128.55078125 C-14.77592163 128.56288887 -14.77592163 128.56288887 -12.76196289 128.57524109 C-9.97461073 128.59023544 -7.18728368 128.6000864 -4.39990234 128.60766602 C-0.86427485 128.61866911 2.67071263 128.65300976 6.20611572 128.69283772 C8.95514931 128.71925363 11.70403677 128.72738005 14.45318604 128.73094749 C16.37887624 128.73806458 18.30446552 128.76439912 20.22998047 128.79133606 C33.44912203 128.7592191 46.27105795 125.41566251 56.12890625 116.20703125 C65.28809321 106.40686988 69.57279965 94.67373883 69.15625 81.22265625 C68.01271182 69.39021258 61.99434277 58.86687081 52.875 51.3125 C44.55919487 45.05860557 35.06418498 42.23054829 24.71459961 42.13549805 C23.49240219 42.12266281 22.27020477 42.10982758 21.01097107 42.09660339 C19.69637405 42.08921646 18.38177704 42.08182953 17.02734375 42.07421875 C16.01411136 42.06810546 16.01411136 42.06810546 14.98040962 42.06186867 C11.40043577 42.0410542 7.82049965 42.02673622 4.24047852 42.01733398 C0.57472725 42.00631753 -3.09040899 41.97196073 -6.75594425 41.93216228 C-9.60187265 41.90578995 -12.44765948 41.89762381 -15.29369926 41.89405251 C-17.29200327 41.88691746 -19.29020968 41.86056551 -21.28834534 41.83366394 C-36.7958543 41.87012591 -49.60202207 46.9963105 -59.58984375 59.1328125 Z " fill="#F2F2F2" transform="translate(106.125,8.6875)"/>
<path d="M0 0 C0.70189453 0.00451172 1.40378906 0.00902344 2.12695312 0.01367188 C3.85550538 0.02543073 5.58401365 0.04336546 7.3125 0.0625 C7.33828125 0.99191406 7.3640625 1.92132813 7.390625 2.87890625 C7.67954008 12.74622269 7.67954008 12.74622269 12.3125 21.0625 C16.53812676 24.1825304 21.02061205 25.81940283 26.296875 25.5078125 C31.70063573 24.31395839 35.32616511 21.27645064 38.75 17.0625 C41.37297843 11.874318 41.14124313 5.75679101 41.3125 0.0625 C43.52020805 -0.01915496 45.72880425 -0.07698488 47.9375 -0.125 C49.16726562 -0.15980469 50.39703125 -0.19460937 51.6640625 -0.23046875 C56.45704012 0.15440633 59.66882697 1.51531093 63.17578125 4.81640625 C63.65402344 5.41324219 64.13226563 6.01007813 64.625 6.625 C65.36169922 7.52412109 65.36169922 7.52412109 66.11328125 8.44140625 C71.23983809 15.37144237 67.83583145 27.25457568 66.8125 35.1875 C66.3175 39.10625 65.8225 43.025 65.3125 47.0625 C49.9675 47.5575 49.9675 47.5575 34.3125 48.0625 C33.9825 49.7125 33.6525 51.3625 33.3125 53.0625 C36.06689516 55.81689516 37.77853203 55.37239276 41.6328125 55.4765625 C42.88964844 55.51523438 44.14648438 55.55390625 45.44140625 55.59375 C46.76011719 55.6246875 48.07882813 55.655625 49.4375 55.6875 C50.77736918 55.72568029 52.11721383 55.76473206 53.45703125 55.8046875 C56.74204619 55.8992203 60.02705138 55.98477156 63.3125 56.0625 C62.64146439 60.02395751 62.11439485 61.76562228 58.9375 64.3125 C58.33164063 64.81265625 57.72578125 65.3128125 57.1015625 65.828125 C53.74162109 68.14633785 50.73335034 68.2083627 46.7746582 68.27124023 C45.63950272 68.29053085 44.50434723 68.30982147 43.33479309 68.32969666 C38.13836577 68.38750031 32.94201912 68.43702384 27.74536133 68.4675293 C25.00692587 68.48530555 22.26952746 68.52006572 19.53149414 68.57006836 C15.57963573 68.64213866 11.62826723 68.66453735 7.67578125 68.68359375 C6.4578035 68.71142441 5.23982574 68.73925507 3.98493958 68.76792908 C-2.64185699 68.75195391 -7.16069566 68.24649734 -12.24324036 63.77503967 C-14.25193323 61.39321986 -15.10857716 59.10184492 -15.6875 56.0625 C-14.84977051 56.03744385 -14.01204102 56.0123877 -13.14892578 55.98657227 C-10.04397744 55.89149643 -6.93919819 55.79225975 -3.83447266 55.69018555 C-1.82855193 55.62551749 0.17752228 55.56566894 2.18359375 55.50585938 C3.44042969 55.46396484 4.69726562 55.42207031 5.9921875 55.37890625 C7.73604736 55.32391968 7.73604736 55.32391968 9.51513672 55.26782227 C12.2660501 55.24428341 12.2660501 55.24428341 14.3125 54.0625 C14.355221 52.39638095 14.35313832 50.72867115 14.3125 49.0625 C12.40030415 47.15030415 8.97604496 47.81814702 6.43359375 47.74609375 C5.7469313 47.72531265 5.06026886 47.70453156 4.35279846 47.68312073 C2.15197065 47.61755857 -0.04897975 47.55870985 -2.25 47.5 C-3.73894514 47.45682108 -5.22787773 47.413207 -6.71679688 47.36914062 C-10.37356553 47.2618707 -14.03047318 47.16062228 -17.6875 47.0625 C-18.19654763 43.08443721 -18.69307427 39.10490442 -19.1875 35.125 C-19.33058594 34.00802734 -19.47367188 32.89105469 -19.62109375 31.74023438 C-21.85679521 13.58846776 -21.85679521 13.58846776 -17.96484375 7.6328125 C-12.83641401 1.3281374 -7.92811281 -0.09623293 0 0 Z " fill="#F3F3F3" transform="translate(82.6875,161.9375)"/>
<path d="M0 0 C1.37612027 -0.0038951 2.75223936 -0.00823142 4.12835693 -0.01298523 C7.00634666 -0.02042181 9.88421369 -0.02017587 12.76220703 -0.01489258 C16.42119406 -0.00911571 20.07967195 -0.02599771 23.73857498 -0.04923725 C26.58018858 -0.06408985 29.421683 -0.06483055 32.26332855 -0.06172752 C34.25884743 -0.06247977 36.25434801 -0.07626413 38.24981689 -0.09040833 C53.14166698 -0.01547537 64.68420789 3.57694929 75.58984375 13.8125 C83.7639487 22.53428368 87.63255657 33.19514532 87.265625 45.08984375 C85.84135972 58.39377622 80.52531309 69.24921584 70.15625 77.76953125 C59.2612639 85.23602522 48.1108003 86.61386756 35.25390625 86.63671875 C33.28619514 86.64670395 33.28619514 86.64670395 31.2787323 86.65689087 C28.50927439 86.66881267 25.73994071 86.67257718 22.97045898 86.67138672 C19.45841086 86.67118425 15.94717843 86.69843341 12.43532276 86.73293114 C9.04150878 86.76080953 5.64783271 86.75935633 2.25390625 86.76171875 C1.01179886 86.77608978 -0.23030853 86.79046082 -1.51005554 86.80526733 C-13.82535839 86.7418252 -24.31091859 83.93141126 -34.078125 76.30078125 C-34.91085938 75.6871875 -35.74359375 75.07359375 -36.6015625 74.44140625 C-39.23488834 72.16528234 -40.86106696 69.99470963 -42.703125 67.05078125 C-43.55777344 65.71273437 -43.55777344 65.71273437 -44.4296875 64.34765625 C-48.16590425 57.44185278 -49.56722339 51.71705343 -49.453125 43.86328125 C-49.46472656 43.06857422 -49.47632813 42.27386719 -49.48828125 41.45507812 C-49.43605385 30.7571655 -45.24813502 20.96600296 -38.0390625 13.06640625 C-26.67707742 2.38694324 -15.11602085 -0.0105375 0 0 Z M-24.078125 13.30078125 C-24.87605469 13.75839844 -25.67398438 14.21601562 -26.49609375 14.6875 C-33.469995 19.81401019 -38.54474688 26.99693075 -41.078125 35.30078125 C-42.03989329 46.18555566 -40.73093459 55.49502161 -34.078125 64.30078125 C-28.2332012 71.11985902 -20.1497789 76.78112286 -11.03216553 77.56147766 C-9.41861176 77.56838875 -9.41861176 77.56838875 -7.77246094 77.57543945 C-6.54388367 77.58497147 -5.3153064 77.59450348 -4.04949951 77.60432434 C-2.73378967 77.60341293 -1.41807983 77.60250153 -0.0625 77.6015625 C1.31744514 77.60545593 2.6973891 77.60979192 4.07733154 77.61454773 C6.96549364 77.62199113 9.85353349 77.62173343 12.74169922 77.61645508 C16.41762767 77.61067803 20.09304937 77.62755728 23.7688942 77.65079975 C26.61904764 77.66563703 29.46908204 77.66639508 32.31926727 77.66329002 C34.32535528 77.66404385 36.33142499 77.67784194 38.33746338 77.69197083 C49.67827284 77.6350579 59.13203193 75.80231708 67.921875 68.30078125 C75.13509054 60.73740962 78.03757602 54.26635651 78.296875 43.86328125 C78.03271891 32.76872537 75.00677535 25.48359954 67.22265625 17.57421875 C60.26419812 11.22560301 52.8617417 9.20605736 43.53027344 9.1237793 C42.25835144 9.11094406 40.98642944 9.09810883 39.67596436 9.08488464 C38.29439691 9.07671535 36.912825 9.06927198 35.53125 9.0625 C34.82995216 9.05842447 34.12865433 9.05434895 33.40610504 9.05014992 C29.69342856 9.02934186 25.98078845 9.01501794 22.26806641 9.00561523 C18.45405996 8.99456602 14.64063932 8.96016895 10.82683945 8.92044353 C7.87551872 8.89417077 4.92433538 8.88591401 1.97290802 8.88233376 C0.56801653 8.87749469 -0.83686995 8.86595804 -2.24164581 8.84729576 C-10.41966793 8.74540893 -16.94788629 9.07660093 -24.078125 13.30078125 Z " fill="#070707" transform="translate(88.078125,50.69921875)"/>
<path d="M0 0 C19.60866141 6.84814422 33.8048508 20.20664632 42.96801758 38.67333984 C48.55388247 50.30817767 50.48784371 61.16421691 50.3125 74.0625 C50.31572266 75.25166016 50.31894531 76.44082031 50.32226562 77.66601562 C50.25898879 88.1412075 49.33875683 97.68924988 44.4375 107.0625 C44.08598877 107.74368896 43.73447754 108.42487793 43.37231445 109.12670898 C36.44704471 122.02240761 25.92254308 130.53427864 12 135 C12 134.34 12 133.68 12 133 C13.43876777 131.94270093 14.9289898 130.95516019 16.4375 130 C27.27155496 122.53245929 33.56736946 113.20292633 38 101 C38.38749213 98.67504723 38.72898 96.34138927 39 94 C39.5259375 92.1746875 39.5259375 92.1746875 40.0625 90.3125 C41.97987639 82.97209637 41.26104621 75.38612782 40 68 C40.18949219 67.28972656 40.37898438 66.57945313 40.57421875 65.84765625 C41.15360051 61.97270855 40.30362654 58.61900617 39.375 54.875 C39.19042236 54.11872314 39.00584473 53.36244629 38.81567383 52.58325195 C37.22059948 46.34070189 35.0486348 40.68736912 32 35 C31.50886719 34.03835937 31.01773438 33.07671875 30.51171875 32.0859375 C23.50712134 19.14665732 13.39624914 8.40822852 0 2 C0 1.34 0 0.68 0 0 Z " fill="#CAD3D6" transform="translate(133,13)"/>
<path d="M0 0 C4.23605165 1.59851006 6.64932301 3.14299839 9 7 C9.8377696 12.06435498 9.81501692 16.57372039 7.25 21.0625 C3.0763338 24.65649034 -0.31825824 25.50296564 -5.74609375 25.38671875 C-10.25729059 24.61270058 -12.71944182 21.7462157 -15.375 18.125 C-16.75785693 13.42328643 -16.57576982 10.06928681 -14.25 5.75 C-9.96656421 0.51468958 -6.87877241 -0.98078836 0 0 Z " fill="#010303" transform="translate(144,77)"/>
<path d="M0 0 C4.11639609 1.77753468 6.76553623 4.11037788 9 8 C9.79607549 12.88098813 9.76602141 16.68682045 7.25 21 C3.03001018 24.75110207 -0.28858494 25.40040075 -5.81640625 25.24609375 C-8.93381716 24.89475764 -10.64829161 24.07503682 -13 22 C-15.57054568 18.18850123 -16.64785885 14.67347645 -16.49609375 10.03125 C-15.56122422 6.20343775 -12.87712858 3.57152684 -10 1 C-6.80436932 -0.59781534 -3.4765367 -0.36841911 0 0 Z " fill="#010303" transform="translate(76,77)"/>
<path d="M0 0 C7.85105733 0.40261832 13.77658165 5.38419459 18.875 11 C26.34614352 20.07951469 26.84440195 29.64219917 26 41 C25.14445243 44.3781907 23.85584707 47.06302084 22 50 C21.57589844 50.69609375 21.15179688 51.3921875 20.71484375 52.109375 C15.68302108 59.56600358 8.762371 64.13566574 0 66 C0.70125 65.319375 1.4025 64.63875 2.125 63.9375 C10.77690532 55.21206574 17.22936161 46.08498679 17.375 33.3125 C17.20110064 22.99809422 14.03685214 14.58324301 7 7 C5.1558723 5.30058252 3.2836783 3.68854965 1.3203125 2.12890625 C0.88460937 1.75636719 0.44890625 1.38382813 0 1 C0 0.67 0 0.34 0 0 Z " fill="#36464E" transform="translate(140,61)"/>
<path d="M0 0 C7.85625695 1.80273953 14.35451136 6.35451136 20 12 C19.625 15.625 19.625 15.625 19 19 C17.3125 19.6875 17.3125 19.6875 15 20 C12.75 18.875 12.75 18.875 10 17 C1.82220917 11.49638128 -4.49089083 9.72610854 -14.42578125 10.125 C-17 10 -17 10 -19 8 C-19.3125 5 -19.3125 5 -19 2 C-13.69413638 -1.53724241 -6.22932636 -0.62060537 0 0 Z " fill="#000000" transform="translate(215,115)"/>
<path d="M0 0 C2.20770805 -0.08165496 4.41630425 -0.13948488 6.625 -0.1875 C7.85476562 -0.22230469 9.08453125 -0.25710937 10.3515625 -0.29296875 C15.14454012 0.09190633 18.35632697 1.45281093 21.86328125 4.75390625 C22.34152344 5.35074219 22.81976563 5.94757813 23.3125 6.5625 C23.80363281 7.16191406 24.29476562 7.76132813 24.80078125 8.37890625 C29.92530903 15.30619951 26.52237477 27.20389821 25.5 35.125 C25.35691406 36.27226562 25.21382812 37.41953125 25.06640625 38.6015625 C24.71637972 41.40177471 24.3608104 44.20116048 24 47 C21.36 47 18.72 47 16 47 C15.97253771 45.31259486 15.95339889 43.6250537 15.9375 41.9375 C15.92589844 40.99777344 15.91429687 40.05804688 15.90234375 39.08984375 C16 36 16 36 16.48046875 32.71875 C17.09586555 28.31380451 17.29737316 24.00487263 17.375 19.5625 C17.41238281 18.75490234 17.44976562 17.94730469 17.48828125 17.11523438 C17.56644573 11.72622756 16.62407147 7.95695014 13.49707031 3.51147461 C11.95406064 1.72122446 11.95406064 1.72122446 8.88671875 1 C7.83097656 1 6.77523437 1 5.6875 1 C4.61886719 0.979375 3.55023438 0.95875 2.44921875 0.9375 C1.64097656 0.958125 0.83273438 0.97875 0 1 C0 0.67 0 0.34 0 0 Z " fill="#CCD5D9" transform="translate(124,162)"/>
<path d="M0 0 C0.763125 0.309375 1.52625 0.61875 2.3125 0.9375 C4.18789677 1.67893593 6.08684652 2.36228217 8 3 C4.17849063 12.24558718 -7.33017936 17.30000079 -16 21 C-22.13275956 23.39653954 -27.35531101 25.25481108 -34 25 C-34 22.36 -34 19.72 -34 17 C-32.783125 16.608125 -31.56625 16.21625 -30.3125 15.8125 C-28.54053962 15.21164687 -26.76983642 14.60708082 -25 14 C-23.97519531 13.6596875 -22.95039063 13.319375 -21.89453125 12.96875 C-13.71468835 10.07599791 -6.21120869 6.21120869 0 0 Z " fill="#7A898E" transform="translate(193,166)"/>
<path d="M0 0 C3.5386994 1.65139305 4.81070153 2.71605229 7 6 C7.73446576 10.56051995 7.59262059 14.01911074 5.1875 18 C2.33756556 20.60565434 0.45051314 20.95828582 -3.375 21.3125 C-7.63776957 20.94501986 -9.05291871 20.03128361 -12 17 C-14.05124631 14.2960844 -14.00081224 13.02233672 -13.875 9.5625 C-12.92645533 5.70056814 -11.74586726 3.82907536 -9 1 C-5.93570224 -0.53214888 -3.3834358 -0.22938548 0 0 Z " fill="#9A9A9A" transform="translate(210,141)"/>
<path d="M0 0 C3.25 0.25 3.25 0.25 5.625 1.75 C9.15980166 3.76988666 12.31341836 3.83486356 16.25 3.25 C18.6014852 2.29346365 20.93745988 1.29718798 23.25 0.25 C26.0625 -0.0625 26.0625 -0.0625 28.25 0.25 C28.91 0.91 29.57 1.57 30.25 2.25 C30.0803123 5.20539411 29.77537345 6.73355279 27.640625 8.83203125 C20.31744217 13.04152503 12.96618683 13.57872362 4.74609375 11.66796875 C1.24423228 10.46198699 -1.37726152 9.08449896 -3.75 6.25 C-4 3.625 -4 3.625 -3.75 1.25 C-2.75 0.25 -2.75 0.25 0 0 Z " fill="#020303" transform="translate(93.75,102.75)"/>
<path d="M0 0 C11.22 0 22.44 0 34 0 C32 6 32 6 30.02734375 7.84375 C25.54309623 9.55644325 21.32406201 9.51316258 16.5625 9.5 C15.1693457 9.54253906 15.1693457 9.54253906 13.74804688 9.5859375 C9.28801071 9.59863511 5.9647433 9.49354837 2.33984375 6.71875 C0 4 0 4 0 0 Z " fill="#7D8C92" transform="translate(90,239)"/>
<path d="M0 0 C5.61 0 11.22 0 17 0 C17.60680356 11.0438247 17.60680356 11.0438247 14.9375 15.25 C11.2475053 17.44829471 9.22781927 17.69182497 5 17 C2.63502561 15.13291495 1.33969285 13.67938569 0 11 C-0.1377685 7.32984725 -0.04271961 3.67388652 0 0 Z " fill="#999999" transform="translate(98,162)"/>
<path d="M0 0 C0.88365234 -0.00257812 1.76730469 -0.00515625 2.67773438 -0.0078125 C3.59748047 -0.00007813 4.51722656 0.00765625 5.46484375 0.015625 C6.38845703 0.00789063 7.31207031 0.00015625 8.26367188 -0.0078125 C9.14603516 -0.00523438 10.02839844 -0.00265625 10.9375 0 C12.14998413 0.00338379 12.14998413 0.00338379 13.38696289 0.00683594 C15.40234375 0.265625 15.40234375 0.265625 17.40234375 2.265625 C17.65234375 4.765625 17.65234375 4.765625 17.40234375 7.265625 C14.91177124 9.75619751 14.11761716 9.5222063 10.68359375 9.53125 C9.75160156 9.53382812 8.81960937 9.53640625 7.859375 9.5390625 C6.88355469 9.53132813 5.90773438 9.52359375 4.90234375 9.515625 C3.92652344 9.52335937 2.95070313 9.53109375 1.9453125 9.5390625 C1.01332031 9.53648438 0.08132812 9.53390625 -0.87890625 9.53125 C-1.73548828 9.52899414 -2.59207031 9.52673828 -3.47460938 9.52441406 C-5.59765625 9.265625 -5.59765625 9.265625 -7.59765625 7.265625 C-7.91015625 4.765625 -7.91015625 4.765625 -7.59765625 2.265625 C-4.43300485 0.1558574 -3.62371852 0.01009895 0 0 Z " fill="#0D0D0D" transform="translate(101.59765625,37.734375)"/>
<path d="M0 0 C1.93166016 0.01740234 1.93166016 0.01740234 3.90234375 0.03515625 C5.19269531 0.04417969 6.48304687 0.05320312 7.8125 0.0625 C8.81152344 0.07410156 9.81054688 0.08570312 10.83984375 0.09765625 C11.46484375 2.97265625 11.46484375 2.97265625 11.83984375 6.09765625 C9.83984375 8.09765625 9.83984375 8.09765625 6.87109375 8.36328125 C5.70578125 8.358125 4.54046875 8.35296875 3.33984375 8.34765625 C2.17453125 8.3528125 1.00921875 8.35796875 -0.19140625 8.36328125 C-3.16015625 8.09765625 -3.16015625 8.09765625 -5.16015625 6.09765625 C-4.43324667 0.13699773 -4.43324667 0.13699773 0 0 Z " fill="#050505" transform="translate(103.16015625,25.90234375)"/>
<path d="M0 0 C2.64 0 5.28 0 8 0 C7.91896914 2.75504918 7.40884366 4.51587351 5.62109375 6.6328125 C1.51943561 10.43166366 -1.426073 11.77249278 -7 12 C-6.34 11.67 -5.68 11.34 -5 11 C-2.99396172 7.52286699 -1.5622071 3.6924895 0 0 Z " fill="#CAD2D6" transform="translate(138,218)"/>
<path d="M0 0 C2.97 0 5.94 0 9 0 C8.20522073 3.25136975 7.63818035 5.43505346 5.09375 7.6875 C0.48278369 9.64366753 -3.8628341 9.31714202 -8.8125 9.1875 C-10.28106445 9.16719727 -10.28106445 9.16719727 -11.77929688 9.14648438 C-14.18676625 9.11125312 -16.59309564 9.06199265 -19 9 C-19 8.67 -19 8.34 -19 8 C-13.39 8 -7.78 8 -2 8 C-1.34 5.36 -0.68 2.72 0 0 Z " fill="#4A5155" transform="translate(115,239)"/>
<path d="M0 0 C4.55555556 0.55555556 4.55555556 0.55555556 6 2 C6.1875 4.4375 6.1875 4.4375 6 7 C5.34 7.66 4.68 8.32 4 9 C-0.55555556 8.44444444 -0.55555556 8.44444444 -2 7 C-2.1875 4.5625 -2.1875 4.5625 -2 2 C-1.34 1.34 -0.68 0.68 0 0 Z " fill="#00ABC1" transform="translate(139,85)"/>
<path d="M0 0 C2.93453261 0.36681658 3.86437246 0.86437246 6 3 C5.625 5.625 5.625 5.625 5 8 C2.6875 8.6875 2.6875 8.6875 0 9 C-1.875 7.8125 -1.875 7.8125 -3 6 C-2.72963853 3.02602384 -2.14553974 2.14553974 0 0 Z " fill="#00ACC2" transform="translate(71,85)"/>
<path d="M0 0 C3 0.125 3 0.125 4 1.125 C4.1875 3.5625 4.1875 3.5625 4 6.125 C3.34 6.785 2.68 7.445 2 8.125 C-2.55555556 7.56944444 -2.55555556 7.56944444 -4 6.125 C-4.125 3.625 -4.125 3.625 -4 1.125 C-3 0.125 -3 0.125 0 0 Z " fill="#01A1E8" transform="translate(34,8.875)"/>
<path d="M0 0 C2.4375 0.1875 2.4375 0.1875 3.4375 1.1875 C3.625 3.625 3.625 3.625 3.4375 6.1875 C2.7775 6.8475 2.1175 7.5075 1.4375 8.1875 C-1.1875 7.8125 -1.1875 7.8125 -3.5625 7.1875 C-4.1875 4.8125 -4.1875 4.8125 -4.5625 2.1875 C-2.5625 0.1875 -2.5625 0.1875 0 0 Z " fill="#01A3EC" transform="translate(179.5625,8.8125)"/>
<path d="M0 0 C1 2 1 2 0.3125 4.5 C-1.15567038 7.29651501 -2.09303901 7.93411431 -5 9 C-3.7508258 5.54074837 -2.32472205 2.85306797 0 0 Z " fill="#E2E4E4" transform="translate(171,112)"/>
</svg>
